HIERARCHY
ROOT Hips
{
  OFFSET 49.6935 84.3285 -5.66797
  CHANNELS 6 Xposition Yposition Zposition Zrotation Xrotation Yrotation
  JOINT spine
  {
    OFFSET 0 6.2448 0.359107
    CHANNELS 3 Zrotation Xrotation Yrotation
    JOINT spine1
    {
      OFFSET 0 9.06941 0
      CHANNELS 3 Zrotation Xrotation Yrotation
      JOINT spine2
      {
        OFFSET 0 8.69014 0
        CHANNELS 3 Zrotation Xrotation Yrotation
        JOINT Neck
        {
          OFFSET 0 22.3112 1.06372
          CHANNELS 3 Zrotation Xrotation Yrotation
          JOINT Head
          {
            OFFSET 0 6.74081 0
            CHANNELS 3 Zrotation Xrotation Yrotation
            End Site
            {
              OFFSET 0 16.3165 -5.38097
            }
          }
        }
        JOINT RightShoulder
        {
          OFFSET -3.65916 9.38468 -0.509514
          CHANNELS 3 Zrotation Xrotation Yrotation
          JOINT RightArm
          {
            OFFSET 0 12.3089 0
            CHANNELS 3 Zrotation Xrotation Yrotation
            JOINT RightArmRoll
            {
              OFFSET 0 6.21375 0
              CHANNELS 3 Zrotation Xrotation Yrotation
              JOINT RightForeArm
              {
                OFFSET 0 18.0985 0
                CHANNELS 3 Zrotation Xrotation Yrotation
                JOINT RightForeArmRoll
                {
                  OFFSET 0 6.97279 0
                  CHANNELS 3 Zrotation Xrotation Yrotation
                  JOINT RightHand
                  {
                    OFFSET 0 13.9929 0
                    CHANNELS 3 Zrotation Xrotation Yrotation
                    End Site
                    {
                      OFFSET 0 0 0
                    }
                  }
                }
              }
            }
          }
        }
        JOINT LeftShoulder
        {
          OFFSET 3.65916 9.38468 -0.509514
          CHANNELS 3 Zrotation Xrotation Yrotation
          JOINT LeftArm
          {
            OFFSET 0 12.3089 0
            CHANNELS 3 Zrotation Xrotation Yrotation
            JOINT LeftArmRoll
            {
              OFFSET 0 6.21375 0
              CHANNELS 3 Zrotation Xrotation Yrotation
              JOINT LeftForeArm
              {
                OFFSET 0 18.0985 0
                CHANNELS 3 Zrotation Xrotation Yrotation
                JOINT LeftForeArmRoll
                {
                  OFFSET 0 6.97279 0
                  CHANNELS 3 Zrotation Xrotation Yrotation
                  JOINT LeftHand
                  {
                    OFFSET 0 13.9929 0
                    CHANNELS 3 Zrotation Xrotation Yrotation
                    End Site
                    {
                      OFFSET 0 0 0
                    }
                  }
                }
              }
            }
          }
        }
      }
    }
  }
  JOINT RightUpLeg
  {
    OFFSET -5.53516 -1.015 -0.851454
    CHANNELS 3 Zrotation Xrotation Yrotation
    JOINT RightUpLegRoll
    {
      OFFSET 0 16.4075 0
      CHANNELS 3 Zrotation Xrotation Yrotation
      JOINT RightLeg
      {
        OFFSET 0 -20.3181 0
        CHANNELS 3 Zrotation Xrotation Yrotation
        JOINT RightLegRoll
        {
          OFFSET 0 20.3846 0
          CHANNELS 3 Zrotation Xrotation Yrotation
          JOINT RightFoot
          {
            OFFSET 0 16.9668 0
            CHANNELS 3 Zrotation Xrotation Yrotation
            JOINT RightToeBase
            {
              OFFSET 0 14.1834 0
              CHANNELS 3 Zrotation Xrotation Yrotation
              End Site
              {
                OFFSET 0.0060118 6.8689 -0.791745
              }
            }
          }
        }
      }
    }
  }
  JOINT LeftUpLeg
  {
    OFFSET 5.53516 -1.015 -0.851454
    CHANNELS 3 Zrotation Xrotation Yrotation
    JOINT LeftUpLegRoll
    {
      OFFSET 0 16.4076 0
      CHANNELS 3 Zrotation Xrotation Yrotation
      JOINT LeftLeg
      {
        OFFSET 0 20.3181 0
        CHANNELS 3 Zrotation Xrotation Yrotation
        JOINT LeftLegRoll
        {
          OFFSET 0 20.5731 0
          CHANNELS 3 Zrotation Xrotation Yrotation
          JOINT LeftFoot
          {
            OFFSET 0 16.7783 0
            CHANNELS 3 Zrotation Xrotation Yrotation
            JOINT LeftToeBase
            {
              OFFSET 0 14.1834 0
              CHANNELS 3 Zrotation Xrotation Yrotation
              End Site
              {
                OFFSET -0.0269423 6.8689 -0.791745
              }
            }
          }
        }
      }
    }
  }
}
MOTION
Frames: 12
Frame Time: 0.00208333
45.7268 83.7369 -6.4674 -0.161827 4.0918 -3.15774 -0.186138 -1.44285 0.00426384 -0.363955 1.11662 0.0279917 -0.364534 2.76168 0.0341019 4.34112 3.80814 -0.710509 -2.41538 0.72985 0.166181 68.9433 -2.45922 -2.38779 108.385 7.67609 5.41466 -6.51058e-006 -8.15082e-007 -2.81197e-008 13.0993 16.4308 -2.42377 -5.7821e-006 -2.40721e-006 -3 8.02888 -4.95143 0.6977 -59.0412 -8.23104 5.0996 -117.369 0.623181 -16.2985 -3.01622e-005 -8.35009e-007 -6.29121e-006 -3.13093 15.8446 0.949259 7.14511e-006 1.64359e-006 3 -8.02987 -4.95141 -0.697677 -178.872 10.9613 -2.07979 180 7.01564e-015 179.002 178.917 15.1013 179.242 2.07296e-006 1.24402e-006 0.391378 -22.6138 71.4104 22.9771 8.13265 25.2359 -3.48603 -178.543 5.27092 -1.87885 4.54188e-006 -4.6773e-006 -1.04101 -2.62463 -15.3626 0.425368 3.20516e-007 4.57298e-006 -0.416814 27.8939 75.1653 -28.5707 -8.26078 27.0833 3.54069 
45.7254 83.7325 -6.45167 -0.160449 4.1061 -3.1359 -0.186426 -1.44418 0.00258413 -0.365136 1.11344 0.0249068 -0.365677 2.7585 0.0310352 4.33788 3.80572 -0.716978 -2.4282 0.700504 0.157019 68.9323 -2.47301 -2.39387 108.405 7.72252 5.39239 -6.51058e-006 -8.15082e-007 -2.81197e-008 13.1021 16.4174 -2.42242 -5.7821e-006 -2.40721e-006 -3 8.02888 -4.95143 0.6977 -59.0545 -8.22997 5.09924 -117.384 0.67859 -16.2683 -3.01622e-005 -8.35009e-007 -6.29121e-006 -3.12538 15.8578 0.949138 7.14511e-006 1.64359e-006 3 -8.02987 -4.95141 -0.697677 -178.872 10.9899 -2.07871 180 7.01564e-015 179.002 178.917 15.1512 179.242 2.07296e-006 1.24402e-006 0.3916 -22.6539 71.4438 23.0166 8.13265 25.2359 -3.48603 -178.545 5.34921 -1.8691 4.54188e-006 -4.6773e-006 -1.04101 -2.61246 -15.4896 0.427456 3.20516e-007 4.57298e-006 -0.419675 27.9375 75.1925 -28.6244 -8.26326 27.1168 3.54178 
45.721 83.7286 -6.45555 -0.159174 4.12046 -3.11409 -0.186829 -1.44541 0.000725597 -0.366571 1.1104 0.021493 -0.367072 2.75545 0.0276436 4.3366 3.80263 -0.723353 -2.44217 0.671211 0.148324 68.9231 -2.48657 -2.39997 108.425 7.76992 5.3699 -6.51058e-006 -8.15082e-007 -2.81197e-008 13.1052 16.4029 -2.42094 -5.7821e-006 -2.40721e-006 -3 8.02888 -4.95143 0.6977 -59.0657 -8.23085 5.10002 -117.401 0.733496 -16.2382 -3.01622e-005 -8.35009e-007 -6.29121e-006 -3.11928 15.8712 0.948966 7.14511e-006 1.64359e-006 3 -8.02987 -4.95141 -0.697677 -178.872 11.0181 -2.07786 180 7.01564e-015 179.002 178.917 15.1997 179.242 2.07296e-006 1.24402e-006 0.391803 -22.6932 71.4763 23.0553 8.13265 25.2359 -3.48603 -178.548 5.42703 -1.85903 4.54188e-006 -4.6773e-006 -1.04101 -2.59998 -15.6154 0.429585 3.20516e-007 4.57298e-006 -0.422481 27.9808 75.2194 -28.6779 -8.26572 27.1499 3.54287 
45.7311 83.7237 -6.45746 -0.157972 4.13487 -3.09232 -0.187313 -1.44658 -0.00125875 -0.368185 1.10745 0.0178477 -0.368643 2.75251 0.0240235 4.33671 3.79908 -0.729661 -2.45696 0.641955 0.139958 68.9151 -2.49998 -2.40609 108.444 7.81799 5.34727 -6.51058e-006 -8.15082e-007 -2.81197e-008 13.1085 16.3877 -2.41937 -5.7821e-006 -2.40721e-006 -3 8.02888 -4.95143 0.6977 -59.0754 -8.2331 5.10161 -117.42 0.788053 -16.2081 -3.01622e-005 -8.35009e-007 -6.29121e-006 -3.11279 15.8848 0.948758 7.14511e-006 1.64359e-006 3 -8.02987 -4.95141 -0.697677 -178.872 11.046 -2.07718 180 7.01564e-015 179.002 178.916 15.2473 179.242 2.07296e-006 1.24402e-006 0.391992 -22.7319 71.5083 23.0934 8.13265 25.2359 -3.48603 -178.55 5.50453 -1.84875 4.54188e-006 -4.6773e-006 -1.04101 -2.58728 -15.7404 0.431745 3.20516e-007 4.57298e-006 -0.425247 28.024 75.2461 -28.7314 -8.26817 27.1826 3.54395 
45.7323 83.721 -6.45098 -0.156818 4.1493 -3.07056 -0.187845 -1.4477 -0.0033159 -0.369902 1.10457 0.0140685 -0.370316 2.74962 0.0202711 4.33762 3.79526 -0.735931 -2.47221 0.61272 0.131782 68.9078 -2.51329 -2.41223 108.462 7.86646 5.32455 -6.51058e-006 -8.15082e-007 -2.81197e-008 13.112 16.3721 -2.41775 -5.7821e-006 -2.40721e-006 -3 8.02888 -4.95143 0.6977 -59.0842 -8.23615 5.10366 -117.439 0.842415 -16.178 -3.01622e-005 -8.35009e-007 -6.29121e-006 -3.10609 15.8985 0.94853 7.14511e-006 1.64359e-006 3 -8.02987 -4.95141 -0.697677 -178.872 11.0738 -2.0766 180 7.01564e-015 179.002 178.916 15.2944 179.242 2.07296e-006 1.24402e-006 0.392174 -22.7704 71.5399 23.1314 8.13265 25.2359 -3.48603 -178.553 5.58184 -1.83834 4.54188e-006 -4.6773e-006 -1.04101 -2.57444 -15.8648 0.433925 3.20516e-007 4.57298e-006 -0.42799 28.0672 75.2727 -28.7849 -8.27061 27.2151 3.54502 
45.7228 83.715 -6.45417 -0.155686 4.16374 -3.0488 -0.188388 -1.44881 -0.00539285 -0.371649 1.10169 0.0102528 -0.372017 2.74674 0.0164828 4.33874 3.79136 -0.74219 -2.4876 0.583491 0.123658 68.9008 -2.52658 -2.41836 108.481 7.91504 5.30181 -6.51058e-006 -8.15082e-007 -2.81197e-008 13.1155 16.3563 -2.41612 -5.7821e-006 -2.40721e-006 -3 8.02888 -4.95143 0.6977 -59.0928 -8.23942 5.10584 -117.459 0.896735 -16.148 -3.01622e-005 -8.35009e-007 -6.29121e-006 -3.09932 15.9123 0.948297 7.14511e-006 1.64359e-006 3 -8.02987 -4.95141 -0.697677 -178.872 11.1015 -2.07604 180 7.01564e-015 179.002 178.916 15.3413 179.242 2.07296e-006 1.24402e-006 0.392354 -22.8089 71.5715 23.1693 8.13265 25.2359 -3.48603 -178.556 5.65911 -1.8279 4.54188e-006 -4.6773e-006 -1.04101 -2.56156 -15.9891 0.436114 3.20516e-007 4.57298e-006 -0.430728 28.1106 75.2993 -28.8386 -8.27304 27.2476 3.5461 
45.7262 83.7067 -6.45136 -0.154547 4.17816 -3.02704 -0.188911 -1.44994 -0.00743657 -0.373348 1.09879 0.00649835 -0.373672 2.74384 0.0127548 4.3395 3.78759 -0.748466 -2.50278 0.554252 0.115447 68.8933 -2.53992 -2.42449 108.5 7.96345 5.2791 -6.51058e-006 -8.15081e-007 -2.81197e-008 13.1189 16.3408 -2.41451 -5.7821e-006 -2.40721e-006 -3 8.02888 -4.95143 0.6977 -59.1018 -8.24232 5.10781 -117.478 0.951169 -16.118 -3.01622e-005 -8.35009e-007 -6.29121e-006 -3.09265 15.9259 0.948073 7.14511e-006 1.64359e-006 3 -8.02987 -4.95141 -0.697677 -178.872 11.1293 -2.07544 180 7.01564e-015 179.002 178.916 15.3885 179.241 2.07296e-006 1.24402e-006 0.392537 -22.8478 71.6032 23.2076 8.13265 25.2359 -3.48603 -178.559 5.73645 -1.81751 4.54188e-006 -4.6773e-006 -1.04101 -2.54873 -16.1136 0.4383 3.20516e-007 4.57298e-006 -0.433476 28.1542 75.3259 -28.8925 -8.27548 27.2802 3.54718 
45.7214 83.7012 -6.43848 -0.153376 4.19256 -3.00526 -0.189378 -1.45112 -0.00939407 -0.374925 1.09583 0.00290249 -0.375207 2.74088 0.00918353 4.33931 3.78414 -0.754788 -2.51742 0.524988 0.107012 68.8851 -2.55335 -2.43061 108.519 8.01139 5.25649 -6.51058e-006 -8.15082e-007 -2.81197e-008 13.1222 16.3257 -2.41296 -5.7821e-006 -2.40721e-006 -3 8.02888 -4.95143 0.6977 -59.1118 -8.24428 5.10922 -117.497 1.00587 -16.0879 -3.01622e-005 -8.35009e-007 -6.29121e-006 -3.08625 15.9395 0.947873 7.14511e-006 1.64359e-006 3 -8.02987 -4.95141 -0.697677 -178.872 11.1572 -2.07473 180 7.01564e-015 179.002 178.915 15.4363 179.241 2.07296e-006 1.24402e-006 0.392729 -22.8872 71.6353 23.2464 8.13265 25.2359 -3.48603 -178.562 5.81403 -1.80728 4.54188e-006 -4.6773e-006 -1.04101 -2.53603 -16.2387 0.440474 3.20516e-007 4.57298e-006 -0.43625 28.1983 75.3526 -28.9468 -8.27794 27.313 3.54827 
45.7231 83.6964 -6.43632 -0.152145 4.20691 -2.98344 -0.189756 -1.45237 -0.0112123 -0.376305 1.09276 -0.00043721 -0.376547 2.7378 0.00586524 4.33759 3.7812 -0.761184 -2.53119 0.495683 0.0982123 68.8755 -2.56697 -2.43671 108.539 8.05858 5.23405 -6.51058e-006 -8.15082e-007 -2.81197e-008 13.1253 16.3115 -2.41151 -5.7821e-006 -2.40721e-006 -3 8.02888 -4.95143 0.6977 -59.1235 -8.24472 5.10975 -117.514 1.06099 -16.0579 -3.01622e-005 -8.35009e-007 -6.29121e-006 -3.08027 15.9529 0.947713 7.14511e-006 1.64359e-006 3 -8.02987 -4.95141 -0.697677 -178.872 11.1855 -2.07383 180 7.01564e-015 179.002 178.915 15.4852 179.241 2.07296e-006 1.24402e-006 0.392937 -22.9275 71.6679 23.2861 8.13265 25.2359 -3.48603 -178.564 5.89196 -1.79729 4.54188e-006 -4.6773e-006 -1.04101 -2.52357 -16.3648 0.442623 3.20516e-007 4.57298e-006 -0.439068 28.2429 75.3795 -29.0016 -8.28041 27.3462 3.54937 
45.7314 83.6889 -6.43613 -0.150829 4.22119 -2.96158 -0.19001 -1.45374 -0.0128383 -0.377412 1.08953 -0.00342322 -0.377618 2.73458 0.00289626 4.33375 3.77898 -0.767682 -2.54374 0.46632 0.0889108 68.8639 -2.58082 -2.44278 108.56 8.10474 5.21183 -6.51058e-006 -8.15082e-007 -2.81197e-008 13.128 16.2984 -2.4102 -5.7821e-006 -2.40721e-006 -3 8.02888 -4.95143 0.6977 -59.1374 -8.24306 5.10904 -117.529 1.11669 -16.0278 -3.01622e-005 -8.35009e-007 -6.29121e-006 -3.07489 15.966 0.947606 7.14511e-006 1.64359e-006 3 -8.02987 -4.95141 -0.697677 -178.872 11.2142 -2.07269 180 7.01564e-015 179.002 178.914 15.5354 179.241 2.07296e-006 1.24402e-006 0.393164 -22.9691 71.7015 23.327 8.13265 25.2359 -3.48603 -178.567 5.9704 -1.78763 4.54188e-006 -4.6773e-006 -1.04101 -2.51141 -16.4922 0.444738 3.20516e-007 4.57298e-006 -0.441946 28.2883 75.4067 -29.057 -8.28292 27.3798 3.55048 
45.7286 83.6862 -6.43374 -0.149398 4.23538 -2.93966 -0.190106 -1.45523 -0.0142191 -0.378171 1.08612 -0.00595804 -0.378346 2.73116 0.00037287 4.32722 3.77766 -0.77431 -2.55474 0.436886 0.0789686 68.85 -2.59498 -2.44881 108.583 8.14958 5.1899 -6.51058e-006 -8.15082e-007 -2.81197e-008 13.1302 16.2867 -2.40907 -5.7821e-006 -2.40721e-006 -3 8.02888 -4.95143 0.6977 -59.1542 -8.23873 5.10676 -117.54 1.17312 -15.9978 -3.01622e-005 -8.35009e-007 -6.29121e-006 -3.07026 15.9788 0.947569 7.14511e-006 1.64359e-006 3 -8.02987 -4.95141 -0.697677 -178.872 11.2435 -2.07122 180 7.01564e-015 179.002 178.914 15.5875 179.241 2.07296e-006 1.24402e-006 0.393418 -23.0121 71.7361 23.3694 8.13265 25.2359 -3.48603 -178.57 6.04947 -1.77841 4.54188e-006 -4.6773e-006 -1.04101 -2.49967 -16.6213 0.446807 3.20516e-007 4.57298e-006 -0.4449 28.3345 75.4342 -29.1131 -8.28545 27.4141 3.55161 
45.7275 83.6795 -6.41382 -0.147828 4.24946 -2.91767 -0.19001 -1.45689 -0.0153016 -0.378506 1.08247 -0.00794412 -0.378657 2.72752 -0.00160861 4.31741 3.77745 -0.781096 -2.56385 0.407363 0.0682474 68.8332 -2.60951 -2.4548 108.608 8.19281 5.16832 -6.51058e-006 -8.15082e-007 -2.81197e-008 13.1319 16.2767 -2.40814 -5.7821e-006 -2.40721e-006 -3 8.02888 -4.95143 0.6977 -59.1746 -8.23114 5.10257 -117.549 1.23043 -15.9677 -3.01622e-005 -8.35009e-007 -6.29121e-006 -3.06654 15.9912 0.947617 7.14511e-006 1.64359e-006 3 -8.02987 -4.95141 -0.697677 -178.873 11.2735 -2.06937 180 7.01564e-015 179.002 178.913 15.6417 179.241 2.07296e-006 1.24402e-006 0.393704 -23.057 71.772 23.4135 8.13265 25.2359 -3.48603 -178.572 6.12932 -1.7697 4.54188e-006 -4.6773e-006 -1.04101 -2.48842 -16.7526 0.448819 3.20516e-007 4.57298e-006 -0.447946 28.3816 75.4621 -29.1701 -8.28803 27.4491 3.55275 
